/* XPM */
static char *_0324_a2baf3bf2c90406870ef93b7a8a94e97dc0515fbe30ca0d941da5785af2ecf97[] = {
/* columns rows colors chars-per-pixel */
"63 50 254 2 ",
"   c #020101",
".  c #0C0203",
"X  c #0D0C0C",
"o  c #080409",
"O  c #140001",
"+  c #1A0100",
"@  c #160C0D",
"#  c #171717",
"$  c #140D14",
"%  c #230101",
"&  c #2C0000",
"*  c #390200",
"=  c #291612",
"-  c #1A241E",
";  c #352116",
":  c #282726",
">  c #393736",
",  c #352E28",
"<  c #1C2922",
"1  c #500C09",
"2  c #700E08",
"3  c #562215",
"4  c #6F2A11",
"5  c #482926",
"6  c #443B3A",
"7  c #583634",
"8  c #562D2C",
"9  c #6B2F2D",
"0  c #411E22",
"q  c #38413C",
"w  c #53453D",
"e  c #70483B",
"r  c #733A46",
"t  c #473C40",
"y  c #374442",
"u  c #444444",
"i  c #4B4C4C",
"p  c #444B47",
"a  c #575757",
"s  c #4F4F4C",
"d  c #755A5C",
"f  c #6B504F",
"g  c #6B655B",
"h  c #636363",
"j  c #6C6C6C",
"k  c #6B6365",
"l  c #747474",
"z  c #7C7C7C",
"x  c #797776",
"c  c #77706D",
"v  c #625F62",
"b  c #8A0D0F",
"n  c #B71814",
"m  c #B40A0C",
"M  c #932A18",
"N  c #A3261A",
"B  c #B5251A",
"V  c #B5301D",
"C  c #B51E2A",
"Z  c #9A3937",
"A  c #932F29",
"S  c #A72B26",
"D  c #B92726",
"F  c #B33727",
"G  c #AF3532",
"H  c #C91917",
"J  c #CD140A",
"K  c #C72417",
"L  c #D92617",
"P  c #D31F22",
"I  c #D72527",
"U  c #C73328",
"Y  c #C93C37",
"T  c #D73935",
"R  c #CF2E2E",
"E  c #E63728",
"W  c #EE3731",
"Q  c #EA2422",
"!  c #97503B",
"~  c #AA4935",
"^  c #C7433A",
"/  c #CF4834",
"(  c #F2493C",
")  c #B13A48",
"_  c #883F46",
"`  c #CD3C46",
"'  c #E63F47",
"]  c #96474D",
"[  c #8F5656",
"{  c #B64B49",
"}  c #BA5958",
"|  c #AC5451",
" . c #89635E",
".. c #AD6355",
"X. c #985B64",
"o. c #825E60",
"O. c #896767",
"+. c #857978",
"@. c #8E7872",
"#. c #B87776",
"$. c #AF7171",
"%. c #C84746",
"&. c #D5534F",
"*. c #FA4847",
"=. c #E65558",
"-. c #FC5A54",
";. c #ED4E49",
":. c #F86456",
">. c #E46459",
",. c #D86967",
"<. c #D27071",
"1. c #E66967",
"2. c #F96967",
"3. c #F9776A",
"4. c #E57874",
"5. c #FA7878",
"6. c #F07070",
"7. c #F75E63",
"8. c #79837C",
"9. c #988678",
"0. c #B2837C",
"q. c #D68477",
"w. c #E88278",
"e. c #FC8278",
"r. c #E0957E",
"t. c #887F82",
"y. c #B67F84",
"u. c #FC7A82",
"i. c #E77881",
"p. c #CE7C88",
"a. c #7C8A87",
"s. c #848484",
"d. c #8B8B8B",
"f. c #898788",
"g. c #968C8A",
"h. c #8E9189",
"j. c #939393",
"k. c #9C9B9C",
"l. c #9D9591",
"z. c #9D938A",
"x. c #A68686",
"c. c #BA898B",
"v. c #A79897",
"b. c #B69697",
"n. c #AB938E",
"m. c #B2A39C",
"M. c #A3A4A4",
"N. c #ACABAB",
"B. c #AFA7A4",
"V. c #B9ACAA",
"C. c #B3B3B2",
"Z. c #BBBBBB",
"A. c #BAB6B8",
"S. c #B1B5A7",
"D. c #9DA5AB",
"F. c #D88687",
"G. c #CA938B",
"H. c #C59998",
"J. c #D99498",
"K. c #CE8D8D",
"L. c #E98A85",
"P. c #F88887",
"I. c #E99683",
"U. c #FA978B",
"Y. c #E99A98",
"T. c #FC9898",
"R. c #F58991",
"E. c #D4AA96",
"W. c #EAA49B",
"Q. c #F9A69C",
"!. c #E4A18E",
"~. c #D098A2",
"^. c #EC99A6",
"/. c #C7A8A7",
"(. c #D6ABA7",
"). c #C8B3AD",
"_. c #D7B4AB",
"`. c #C8B7B5",
"'. c #D8B8B6",
"]. c #DBADB0",
"[. c #E8A6A7",
"{. c #FFA4A3",
"}. c #F9A9A7",
"|. c #E9B1A9",
" X c #FDB1A8",
".X c #E7B8B6",
"XX c #F9B7B7",
"oX c #F2ABB4",
"OX c #ACC2B6",
"+X c #C8C1BA",
"@X c #DAC1BB",
"#X c #E5C3BB",
"$X c #FFC5BC",
"%X c #FDC7B7",
"&X c #FFC9B3",
"*X c #C9BCC1",
"=X c #FBBBC1",
"-X c #ECBCC1",
";X c #BDD1C9",
":X c #CCCBCB",
">X c #C5C4C4",
",X c #D6CAC7",
"<X c #D9D2CD",
"1X c #D5D5D4",
"2X c #DBD9D9",
"3X c #CBD5CA",
"4X c #E7C9C7",
"5X c #FFCDCB",
"6X c #FBC8C4",
"7X c #E9D3CD",
"8X c #FED3CC",
"9X c #FCD6C8",
"0X c #F8CCD4",
"qX c #E6D7D5",
"wX c #FDD3D3",
"eX c #FEDDD4",
"rX c #FEDCDB",
"tX c #F5D7D6",
"yX c #E1CED2",
"uX c #FEE2DD",
"iX c #FAE6DA",
"pX c #EFE9DA",
"aX c #FEDCE2",
"sX c #F8DDE6",
"dX c #EDDEE3",
"fX c #DFECE3",
"gX c #EAEBE5",
"hX c #EBECEB",
"jX c #E7E6E6",
"kX c #FEE4E2",
"lX c #FEEBE4",
"zX c #FFE5E9",
"xX c #F3EDED",
"cX c #FEECEC",
"vX c #F4E5E6",
"bX c #E9F5EC",
"nX c #FEF3EC",
"mX c #FFFAED",
"MX c #F7F6E9",
"NX c #EEEEF3",
"BX c #FEECF3",
"VX c #F8ECF5",
"CX c #EDFBF4",
"ZX c #EDFFFE",
"AX c #E7F9F6",
"SX c #F4F4F4",
"DX c #FEF4F4",
"FX c #F4FBF4",
"GX c #FEFBF4",
"HX c #F5F6FA",
"JX c #FFF5FB",
"KX c #F4FEFD",
"LX c #FDFDFD",
"PX c #DEF1DE",
/* pixels */
"LXJXk.yXsX).BXnXlX7XcXLXcXJXLXJXJXJXLXLXKXKXKXKXLXLXGXGXGXGXGXKXKXSXGXDXLXnXDXLXGXLXFXLXCXKXFXLXBXrXGXKXCXPX+XA.GXGXGXDXPXFXGX",
"VXLX`.VX,XJXrX7X7X).nXlXDXJXLXvXJXLXLXLXLXLXKXLXLXGXLXGXGXGXGXFXLXbXLXLXxXGXHXsXGXGXGXGXCXKXFXJX0X/.<X3X3XGX<Xv.).BXcXGXGXMXmX",
"LXdXdX`.).(.#X#Xx.H.`./.JXjXjXLXLXLXLXLXKXKXKXKXLXLXLXLXLXGXGXLXCXSXLXJXDXDXrXsXnXGXLXDXLXKXLXJX-X4X,Xa :XMXnX4Xr ~.VXDXvXlXFX",
"BX`.f O./.b.7X8X/.tXnX@X`.JXLXVXLXLXLXLXLXLXLXLXKXLXLXLXLXLXLXGXLXLXdXqXGXtX] X.DXGXJXzXLXFXGXLX,X).rXB.z.GXnXtX[.X.O.-Xb.d MX",
"+.+./.n.4XGXx.H.'./.#XvXqXSXLXLXLXKXLXLXLXLXLXLXLXLXLXLXLXLXLXLXNXGX,X/.0X0Xy.].c.4XcXrXGXLXJXcXDXmX8X4XO.O.6XmX@.7 d f 0 @.GX",
"m.)./.iXkX$.@..XeX0XrX@XLXLXKXCXKXLXLXLXLXLXLXLXLXLXKXKXLXLXJXLXDXDXyX/.b.].-X].c.rXDXtXcXLXJXJXDXwXoXrXuX0 O.7 g.JXaXd & = b.",
"mXpXw f f 0.6XuX.Xx._.yXDXhXLXKXKXKXGXLXJXLXJXLXLXLXKXKXKXLXLXLXJXBXaXcXvXqXyXx.a h.b.'.zXVX].~.X.[ ] ] 9.g f lXBX`.t.y.=Xr . ",
")., =  .#XO.#X|.$.4XtXyXGXGXjXLXLXGXLXDXJXJXJXLXLXLXKXZXZXKXKXLXJXJXBXJXvXn.-X4XGXS.f d n.y.r X.9X(.K.XX).+XmX,XM.yX-Xb.BX-X+.",
"= O.7X9.4XiX[ 8 .XwXcXDXDXDXGXSXxX/.t.DXcXDXGXnXGXSXKXAXKXKXKXZXZXCX<X`.,XuXp.9 /.4X-Xo.V.>X,XcXmXMXmXnX^.=XtXg.yXDX4XyXLXLXLX",
"pXmXiX+X4X'.9X'.@. .O.'.cXGXxXnX@X(.H.wX$X.XrXmXlXGXSXgXKXAXKXZXAXCX2XvXLXcX].XXBXJX'.).MXLXLXFXMXMXmX@X] #.4X1X,XGXzXzXLXFXHX",
"mXGXpXGXcX).uX/.tXDX7Xg.@.`.v.v.#.G.K.$.$.0.G.0.c.#XuXGXGXFXbXfXKXSXVXLXvXnXLXDXvXGX+XGXLXDXBXDXGXGXmXGX4XzXGXhX<XDXLXLXLXHXKX",
"GXmXGXGXDXqX,Xg.4XtXcXDX4X).d H.=XY. X%XiXeX9X&XiXXX$X$XkXmXx v LXLXLXDXDXGXGXGXKXgXh.1XxXJXLXJXcXmXGXGXGXLXGXNXNXFXJXLXLXLXLX",
"LXxXGXhXLXGXGXLXGXGXGXDXDXDX(.|.F.| F.F.W.Q.Q.Q.U.4.<.} [.5X5 . V.NXzXJXLXLXcXzXAX;XM.3XNXLXLXJXLXLXLXJXDXDXLXLXZXAXZXKXAXKXLX",
"LXLXLXLXLXSXFXLXLXcXkXDXcXeXG.J.T.R.Q.q.q.r.r.w.5.P.R.R.L.Q.$.+ j A.sXHXhXLXJX*XOX;XGXGXLXAXHXJXLXLXJXKXLXLXJXVXZXAXZXZXAXKXJX",
"HXKXKXLXLXCXLXLXGXLXGXDXwX(.K.J.{.P.w.I.I.! ~ 5.2.;.' ;.Y { <.8 f.LXJXJXLXLXDXdXfXFXLXHXKXKXLXLXHXHXLXHXLXHXLXJXHXHXZXZXKXLXJX",
"LXSXLXLXAXLXKXHXHXGXLXcXwX.XJ.p.i.{.U.U.w.4 2 1.-.2.7.;.5.^ ~  XBXLXNXLXLXxXJXJXVXLXLXHXLXKXLXKXKXKXKXZXKXHXLXBXJXJXZXAXKXLXSX",
"GXLXLXLXLXLXLXKXSXLXGXrX.XXX[.{.T.P.T.L.T.4.2 2.2.-.-.*.( ( ( :.uXLXLXLXLXLXHXLXJXJXLXLXLXLXJXLXKXZXZXKXLXKXLXLXBXLXbXFXLXLXSX",
"LXGXLXLXLXLXLXLXLXGXLX7X.X|.Q.}.F.XX<.} q.,.,.,.=.&.;.;.W L L U uXGXgXFXJXLXKXAXLXLXKXKXLXLXLXLXZXZXKXKXLXLXLXJXLXSXLXKXgXgXGX",
"LXGXLXLXLXLXLXLXHXDXDXtX6X6XXXXX9X0.0 3 [.K.Q.L.P.3.2.-.:.( W / |.GXGXGXGXGXFXZXKXGXKXKXLXGXGXSXLXLXJXJXJXLXLXNXZX;XZXAXLXLXJX",
"LXLXGXLXKXLXLXLXLXLXGXxXaXzXeXwXiXiXe & G.|.eX9X%X XU.3.:.( ( L W.GXmXGXmXDXbXPXFXFXCXFXGXGXGXGXDXLXJXJXJXJXHXNXy a.ZXbXLXDXBX",
"GXLXGXLXLXLXLXLXLXDXDX4X.X=X}.[.I. Xq.1 ~ P.,.e.:.:.;.E E E Q L K.JXVXJXJXLXLXKXGXLXLXKXKXLXLXLXLXGXGXLXJX>Xk $ o d.KXLXLXLXLX",
"LXLXLXLXLXLXLXLXLXLXDX4X.X.XoX}.T.r.} 4.P.4.5.&.&.>.;.E E L L V ~.LXJXJXJXJXLXLXJXJXKXKXLXLXKXHXnXlX7Xz.u $   . o $ k dXNXLXKX",
"LXLXLXLXLXLXLXLXJXDXcX4X].XXoXXXXXY.^.{.Y.{.XX{.Q.Q.{.{.{.Q.Q. XsXHXD.A.VXKXGXLXJXLXHXjX2X*Xk.f.w ; O O % % % % o $ a HXLXKXLX",
"KXGXLXLXLXLXLXLXLXLXLXtX4X-X.XoX[.}.XXY.Q.R.L.R.U.P.5.P.e.e.5.P.JXNXy o = , q w 7 5 ; = % + O O & * * 3 9 9 8 7 V.KXhXKXZXLXLX",
"CXGXNXLXLXLXLXLXSXLXnXcXf f =X[.Y.Y.T.w.w.4.,.2.2.T ;.T W W H =.|.5 . O O + . O & % % & * 1 2 2 b n U D ) A 1 ].GXGXKXKXKXLXLX",
"FXLXLXLXLXLXk.:XGXgXLXvX+ O b..X|.W.W.W.W.U.w.4.,.1.Y &.` ` C }.XXf 7 e 3 4 4 4 2 M M A S S S N I Q J U %.| [ aXGXGXKXKXKXLXLX",
"LXKXLXLXLXk.. > bXSXGXl.. O x.LXmXmXmXcXeX4X#X.XG.9 1 #.#.$.<.zXGXMXmX6X| b N D T H n D D S ~ >./ N V r.&XlXnXmXGXGXKXLXGXLXLX",
"KXLXLXDXLX>     C.LXLXq   @ d JXDXGXGXGXmXnXGXmXGXw ; 0XkXtXcXKXFXCXGXuXY.P.6.&.H *.e.T.{. X$X6X X/ / 9XiXiXnXmXGXGXGXLXLXLXLX",
"KXLXDXLX,XX :   8.CXGXq     > vXcXBXkXlXnXmXnXlXeXw ; tXnXGXGXxXZXKXLXLXrXuXkX$XY  XeXeX5XaXkXrX$X( *.{.Q.6.<.sXJXJXKXKXKXKXLX",
"LXLXLXLXl @ : X a ZX3X> # - : 2XrXtX(.'.4X_.'._.#X5 = lXnXGXGXGXKXKXHXJXzXuXeXQ.G P.{.U.e.4.} { T I m m R C ) VXJXLXKXHXKXKXLX",
"LXHXLXLXv > > , a bX8.< > q # C.hXA.k l.qX,XyXpX<X; @ A.LXLXLXLXZXLXLXzXF.G G D H L B N F A ! { Y T ^ 6.R.Y.].VXLXLXKXKXLXLXLX",
"LXKXLXDXc > i > s a.< s y y y >XLXd.o a LXLXDXGXg # o = LXLXLXHXKXFXDXBXXX<.1.2.P 5.Q.Q.&X9X%XeXeXY S eXMXvXJXVXKXKXKXKXLXLXLX",
"LXLXLXSXv a i a s i a i v i i ;XSXf.o a jXSXj # X -     x xXJXHXSXGXAXHXLXDX.X!.Z XXzXzXDXmXlXlXwX&.S &XmXAXLXnXgXmXCXKXLXKXDX",
"LXLXhXhXj j l a j h j h l j h N.1X:   # M.#   X   o     . > v.LXuXGXLXAXLXGX9.1 Z  XzXsXDXDXcXkXvX&.M &XGXAXJXJXmXmXGXbXLXGXGX",
"SXLXLXSXx j x s.z j x j l z l k.LXa $ : s.#       X X X o   i 0X=X=XH.yXqX@.& 2 R R %.} | K.5XkXwX%.B  XMXDXaX~.$.$.m.cXDXGXGX",
"SX>XKXjXs.t.s f.d.d.k.j.f.a.v p # X   X     o #         .   $ 7 b b 1 8 % @ & M P m 2 b b b Z ,.8X/ n U.cXJXaXi.S A K.aXcXcXGX",
"SX*XNXk.: # # d.k.d.f.k i u , $ # X $ X # # #   X # X X $ # $ * b %.3 & % * * M m m b C u.=.S 4.6X;.K 3.=X0XsX0Xu.` $.0 6 s B.",
"jXM.z p > u s a l v s y > y i y t > u i i y u w p y u u 6 6 t 9 G C 2 e 9 A M V E J H C R ` C U &.K J n ) ] $.,.` m _ 5 ; 8 t ",
"j.z s.x a.s.d.z l l x f.j.j.f.t.s.g.f.j.a.d.s.d.d.s.f.j.g.d.f.$.I W ) Z ] { V K Q J W I H Q I P T U L n |  . .] ` C X.l.t.l.+.",
"SXZ.1Xk.s.t.a.N.Z.M.f.j.j.f.z a.s.+.z l f.z z a.s.z z z t.f.t.X.R I { | | ..&.U H *.*.P *.*.I P.Q./ J ( XX.X_.eX2.) G.g d.+.m.",
"SXC.LXjXN.B.k.N.1Xd.l >XC.>XA.M.B.d.t.s.s.x l a.l l k z k k j #.=.n 0.n.9.9.! ~ U U 2.Y =.2.^ 9X&XU L ;.iXmXnXlX5.S uXpXgXFXLX",
"SX:XLX1XC.;XZ.Z.>Xf.s A.Z.C.N.HXLXB.t.N.:XD.x l a.j.f.x z f.`.BXe./ &XmXpXpXE.! F Q.$X{ 1.6.~ eX9X/ B ( iXmXlXkXu.%.kXmXFXLXLX",
"NX:XLXjXk.M.M.j > v i j.M.M.D.LXxXf.a N.LXLX2XZ.f.j k s.dXhXJXBXU.^ %XmXMXMX9X..G 6XuX,.6.P.&.9X&X&./ :.9XtX5X5X5.=.5XLXGXGXLX",
"HXC.LXNXz v j #   p i i a a s s.a h d.:XHXLXKXLXfXj.d.>XLXLXLXcXT.1.8XnXlXMXwX4.1.U.XX4.<.w.>.e.q.>.:.>.<.0.$.,.7.=.XXBXGXLXKX",
"SXA.SXLXA.a.f.z C.C.M.s.f.l k.>Xv.1XLXLXLXLXLXLXLXM.k.hXDXLXDXrXw.,.T.[.^.^.R.,.5.1.I.q.i.i.7.2.4.4.3.4.#.H.p.i.6.1.[.zXDXLXKX",
"LX1XLXLX2Xf.v j.SX1X>Xj.l l 2XLXLXLXNXNXHXLXHXSXjXs.t.NXJXLXVX4XY.r.^.^.^.oX^.R.5.R. XG.J.T.u.}.XXR.6.U.tXDXaXzX{.L.=XJXLXLXHX",
"jX>XLXLXLXhXZ.hXNXNXhX:Xd.k.NXLXDXHXLXLXLXLXLXLXLX1X1XKXLXJXLXDX|.!.5XVXJXBX8XW.T.5XMXE.(.|.L.5XaX{.w.!.pXLXcXlX&XE.kXLXLXLXKX",
"LXN.LXLXSXLXLXLXSXFXhXLX1XhXLXSXLXLXLXLXHXLXLXHXLXLXLXHXLXDXJXGX9XE.uXGXLXnXMX(.W.$XmX@X_.#XE.uXeX XQ.W.gXKXLXGX%Xm.nXGXJXLXLX",
"jX2XNXLXLXLXLXLXLXLXLXLXLXLXLXLXLXLXLXLXLXLXLXLXLXLXLXLXLXLXSXDX<X).pXxXxXxXpX`.).tXvX+X+X,X).tXkX'.'.`.gXFXDXcX<X`.jXLXLXLXLX",
"HXhXLXLXLXLXLXLXLXLXLXLXLXLXLXLXLXLXLXLXLXLXLXLXLXLXLXLXLXLXLXLX:XN.2XgXgXjX2XC.N.:X2XC.C.+XN.3X:XN.V.N.:X<X:X:X>XA.2XLXLXLXLX"
};
